<svg xmlns="http://www.w3.org/2000/svg" viewBox="0 0 1024 1024" width="128" height="128" style="font-size: 128px;"><defs><style>.cls-1{fill:#f3fff8;}.cls-2{fill:#144606;}.cls-3{fill:#066933;}.cls-4{fill:#e6fff1;}.cls-5{fill:#fff;}</style></defs><title>咖啡</title><g id="图层_4" data-name="图层 4"><path class="cls-1" d="M260.56,248.22,282.8,123c1.68-9.46,9.55-16.33,18.71-16.33h421c9.16,0,17,6.87,18.71,16.33l22.24,125.24c2.18,12.3-6.8,23.67-18.71,23.67H279.27C267.36,271.89,258.38,260.52,260.56,248.22Z"></path><path class="cls-2" d="M744.72,286.89H279.28a33.62,33.62,0,0,1-25.78-12.14,35.58,35.58,0,0,1-7.71-29.15L268,120.36c3-16.63,17-28.71,33.48-28.71h421c16.44,0,30.52,12.08,33.48,28.71L778.21,245.6a35.58,35.58,0,0,1-7.71,29.15A33.62,33.62,0,0,1,744.72,286.89Zm-469.39-36a5.64,5.64,0,0,0,1.16,4.64,3.65,3.65,0,0,0,2.79,1.41H744.72a3.65,3.65,0,0,0,2.79-1.41,5.64,5.64,0,0,0,1.16-4.64L726.43,125.61c-.41-2.3-2.07-4-3.94-4h-421c-1.87,0-3.53,1.66-3.94,4Z"></path><polygon class="cls-1" points="749.92 511.81 725.33 673.81 298.67 673.81 274.08 511.81 749.92 511.81"></polygon><path class="cls-1" d="M721.57,703.81,693.15,891.1a5,5,0,0,1-4.95,4.25H335.8a5,5,0,0,1-4.95-4.25L302.43,703.81Z"></path><polygon class="cls-1" points="772.02 371.39 755.26 481.81 268.74 481.81 251.98 371.39 772.02 371.39"></polygon><path class="cls-2" d="M217.08,341.39,301.19,895.6a34.8,34.8,0,0,0,34.61,29.75H688.2a34.8,34.8,0,0,0,34.61-29.75l84.11-554.21ZM721.57,703.81,693.15,891.1a5,5,0,0,1-4.95,4.25H335.8a5,5,0,0,1-4.95-4.25L302.43,703.81Zm3.76-30H298.67l-24.59-162H749.92Zm-456.59-192L252,371.39H772L755.26,481.81Z"></path><polygon class="cls-3" points="749.92 511.81 725.33 673.81 298.67 673.81 274.08 511.81 749.92 511.81"></polygon><rect class="cls-4" x="170.75" y="220.08" width="682.51" height="136.2" rx="19.51"></rect><path class="cls-2" d="M833.74,371.28H190.26a34.55,34.55,0,0,1-34.51-34.51V239.59a34.55,34.55,0,0,1,34.51-34.51H833.74a34.55,34.55,0,0,1,34.51,34.51v97.18A34.55,34.55,0,0,1,833.74,371.28ZM190.26,235.08a4.51,4.51,0,0,0-4.51,4.51v97.18a4.51,4.51,0,0,0,4.51,4.51H833.74a4.51,4.51,0,0,0,4.51-4.51V239.59a4.51,4.51,0,0,0-4.51-4.51Z"></path><path class="cls-5" d="M389.1,562.89c14,0,24.53,7.87,27.88,20.59H401.24a12.93,12.93,0,0,0-12.3-7.53c-8.79,0-14.82,6.52-14.82,16.9s6,16.91,14.82,16.91a12.93,12.93,0,0,0,12.3-7.53H417c-3.35,12.72-13.9,20.51-27.88,20.51-17.32,0-29.54-12.31-29.54-29.89S371.78,562.89,389.1,562.89Z"></path><path class="cls-5" d="M453.57,622.91c-16.66,0-30.22-12.48-30.22-30.14s13.56-30,30.22-30,30.05,12.39,30.05,30S470.22,622.91,453.57,622.91Zm0-13.06c9.37,0,15.48-6.78,15.48-17.08,0-10.46-6.11-17.08-15.48-17.08-9.55,0-15.57,6.62-15.57,17.08C438,603.07,444,609.85,453.57,609.85Z"></path><path class="cls-5" d="M491.58,563.56h38.25V575H505.89v12.39H523.8v11.14H505.89v23.77H491.58Z"></path><path class="cls-5" d="M537.37,563.56h38.25V575H551.68v12.39H569.6v11.14H551.68v23.77H537.37Z"></path><path class="cls-5" d="M619.16,575H597.47v11.89h19.17V598H597.47v12.89h21.69v11.47h-36V563.56h36Z"></path><path class="cls-5" d="M664.44,575H642.76v11.89h19.17V598H642.76v12.89h21.68v11.47h-36V563.56h36Z"></path></g></svg>