<svg xmlns:dc="http://purl.org/dc/elements/1.1/" xmlns:cc="http://creativecommons.org/ns#" xmlns:rdf="http://www.w3.org/1999/02/22-rdf-syntax-ns#" xmlns:svg="http://www.w3.org/2000/svg" xmlns="http://www.w3.org/2000/svg" viewBox="0 0 400 400" height="256" width="256" xml:space="preserve" id="svg2" version="1.1" style="font-size: 256px;"><metadata id="metadata8"><rdf:rdf><cc:work rdf:about=""><dc:format>image/svg+xml</dc:format><dc:type rdf:resource="http://purl.org/dc/dcmitype/StillImage"></dc:type></cc:work></rdf:rdf></metadata><defs id="defs6"></defs><g transform="matrix(1.3333333,0,0,-1.3333333,0,400)" id="g10"><g transform="scale(0.1)" id="g12"><path id="path14" style="fill:#696b73;fill-opacity:1;fill-rule:nonzero;stroke:none" d="m 968.324,1753.46 v 0 c -2.89,-2.22 -8.668,-3.63 -11.625,-5.11 -52.043,-26.72 -98.308,-61.45 -135.844,-104.09 -45.605,-48.41 -80.25,-104.08 -99.792,-164.12 -44.864,-130.81 -20.286,-284.87 112.746,-419.31 h -0.664 l 668.715,-641.978 667.97,641.238 v 0.74 c 134.52,134.44 159.09,288.5 114.96,418.56 -19.54,60.79 -54.25,116.46 -99.05,164.87 v 0 c -39.01,42.64 -86.01,78.1 -138.05,104.09 l -9.41,4.37 -13.03,5.77 c -138.06,61.45 -307.22,53.53 -458.32,-70.11 -36.2,-31.09 -91.87,-32.57 -129.41,0 -151.09,125.04 -320.32,131.56 -457.653,70.11 l -11.543,-5.03 v 0 z m 51.296,232.01 v 0 c 153.99,34.72 324.63,12.29 482.24,-92.54 159.01,104.83 329.65,127.26 484.38,92.54 v 153.98 c 0,131.62 -53.53,252.37 -140.29,339.8 l -1.41,1.48 v 0 c -88.24,87.43 -208.24,141.69 -341.28,141.69 -133.03,0 -253.03,-53.52 -340.46,-140.29 l -1.48,-1.4 h -0.74 c -86.77,-87.5 -140.96,-208.25 -140.96,-341.28 v -153.98 z m 591.36,-591.35 v 0 c -48.42,48.41 -126.52,49.15 -175.68,0 -37.6,-38.35 -46.93,-99.79 -20.21,-146.73 10.14,-18.14 25.32,-34.72 42.64,-46.27 17.33,-10.89 28.21,-29.68 28.21,-51.37 V 958.148 l 0.74,-4.289 c 0,-47.007 72.26,-47.007 72.26,0 v 193.741 1.4 0.75 c 0,20.28 10.87,40.48 29.68,51.37 18.8,11.55 33.24,28.13 43.38,46.27 25.99,46.94 17.33,108.38 -21.02,146.73 z m 86.02,86.76 v 0 c 78.1,-77.36 94.02,-198.85 41.97,-293.53 l -2.89,-2.14 c -14.5,-25.33 -31.82,-48.5 -54.25,-67.22 V 953.859 c 0,-208.988 -317.37,-208.238 -317.37,0 v 2.891 161.24 c -23.1,20.2 -41.91,44.04 -56.34,69.36 -52.12,95.42 -36.2,216.17 41.16,293.53 96.16,96.17 252.29,95.42 347.72,0 z M 689.973,916.988 C 492.605,1113.61 460.77,1344.96 528.73,1544.47 c 28.95,88.91 78.844,170.64 142.438,238.6 42.637,44.79 90.391,86.76 143.836,118.52 v 237.86 c 0,187.96 78.101,360.08 202.476,484.38 v 0 0.74 c 124.29,124.37 296.42,201.73 485.78,201.73 187.96,0 360.09,-77.36 484.39,-201.73 v -0.74 0 c 124.36,-124.3 202.47,-296.42 202.47,-484.38 v -237.86 c 53.44,-31.76 102.6,-73.73 144.58,-118.52 v 0 c 63.59,-67.96 112.74,-151.1 143.09,-239.34 66.56,-198.77 33.32,-429.37 -163.38,-626.742 l -4.29,-4.359 -737.41,-707.059 c -39.1,-39.019 -101.95,-39.019 -140.29,0 l -741.041,709.942 -1.406,1.476 v 0 0"></path></g></g></svg>